<svg width="512" height="512" viewBox="0 0 512 512" fill="none" xmlns="http://www.w3.org/2000/svg">
<path d="M255.817 435.191L219.619 471.389C170.163 520.845 89.9781 520.845 40.5219 471.389C-8.8662 422 -8.94424 341.951 40.3474 292.466L76.8753 255.796L255.817 435.191Z" fill="#5B77FF"/>
<path d="M255.701 255.826L255.778 435.193L76.7757 255.818L255.701 255.826Z" fill="#6D86FF"/>
<path d="M255.808 76.8808L292.451 40.3633C341.926 -8.94255 421.983 -8.87405 471.373 40.5165C520.824 89.9669 520.824 170.142 471.373 219.592L435.165 255.801L255.808 76.8808Z" fill="#9AABFF"/>
<path d="M255.709 255.9L255.785 76.8395L435.19 255.799L255.709 255.9Z" fill="#8CA0FF"/>
<path d="M435.142 255.784L471.612 292.388C520.956 341.915 520.882 422.044 471.446 471.48C422.012 520.914 341.886 520.99 292.358 471.649L255.752 435.181L435.142 255.784Z" fill="#8599FF"/>
<path d="M255.656 255.884L435.19 255.799L255.778 435.193L255.656 255.884Z" fill="#7E94FF"/>
<path d="M76.8496 255.798L40.5647 219.513C-8.84342 170.105 -8.8434 89.9987 40.5647 40.5906C89.9728 -8.81753 170.079 -8.81751 219.487 40.5905L255.779 76.8823L76.8496 255.798Z" fill="#738AFF"/>
<path d="M255.709 255.9L76.7537 255.846L255.779 76.8823L255.709 255.9Z" fill="#778EFF"/>
<path d="M3.78805 139.632H3.90746C6.1032 168.747 18.3423 197.249 40.6049 219.515L76.8115 255.721L76.9294 255.837L76.8115 255.927L40.7532 292.261C18.0329 314.981 5.61231 344.067 3.78805 373.801V139.632Z" fill="#6881FE"/>
<path d="M372.293 3.77674V3.89614C343.178 6.09188 314.677 18.331 292.411 40.5936L256 76.7489L255.817 76.9315L255.779 76.8823L219.611 40.7404C196.891 18.0201 167.913 5.91177 138.125 3.77673L372.293 3.77674Z" fill="#8398FF"/>
</svg>
